<mxfile host="65bd71144e">
    <diagram id="YXmlE5mrbAR83YOhlNrc" name="Page-1">
        <mxGraphModel dx="662" dy="594" grid="1" gridSize="10" guides="1" tooltips="1" connect="1" arrows="1" fold="1" page="1" pageScale="1" pageWidth="850" pageHeight="1100" math="0" shadow="0">
            <root>
                <mxCell id="0"/>
                <mxCell id="1" parent="0"/>
                <mxCell id="2" value="&lt;meta charset=&quot;utf-8&quot;&gt;&lt;div style=&quot;color: rgb(212, 212, 212); background-color: rgb(30, 30, 30); font-family: menlo, monaco, &amp;quot;courier new&amp;quot;, monospace; font-weight: normal; font-size: 12px; line-height: 18px;&quot;&gt;&lt;div&gt;&lt;span style=&quot;color: #c586c0&quot;&gt;export&lt;/span&gt;&lt;span style=&quot;color: #d4d4d4&quot;&gt; &lt;/span&gt;&lt;span style=&quot;color: #569cd6&quot;&gt;type&lt;/span&gt;&lt;span style=&quot;color: #d4d4d4&quot;&gt; &lt;/span&gt;&lt;span style=&quot;color: #4ec9b0&quot;&gt;MarketData&lt;/span&gt;&lt;span style=&quot;color: #d4d4d4&quot;&gt; = {&lt;/span&gt;&lt;/div&gt;&lt;div&gt;&lt;span style=&quot;color: #d4d4d4&quot;&gt;  &lt;/span&gt;&lt;span style=&quot;color: #9cdcfe&quot;&gt;price&lt;/span&gt;&lt;span style=&quot;color: #d4d4d4&quot;&gt;: &lt;/span&gt;&lt;span style=&quot;color: #4ec9b0&quot;&gt;string&lt;/span&gt;&lt;/div&gt;&lt;div&gt;&lt;span style=&quot;color: #d4d4d4&quot;&gt;  &lt;/span&gt;&lt;span style=&quot;color: #9cdcfe&quot;&gt;marketCap&lt;/span&gt;&lt;span style=&quot;color: #d4d4d4&quot;&gt;: &lt;/span&gt;&lt;span style=&quot;color: #4ec9b0&quot;&gt;string&lt;/span&gt;&lt;/div&gt;&lt;div&gt;&lt;span style=&quot;color: #d4d4d4&quot;&gt;  &lt;/span&gt;&lt;span style=&quot;color: #9cdcfe&quot;&gt;volume&lt;/span&gt;&lt;span style=&quot;color: #d4d4d4&quot;&gt;: &lt;/span&gt;&lt;span style=&quot;color: #4ec9b0&quot;&gt;string&lt;/span&gt;&lt;/div&gt;&lt;div&gt;&lt;span style=&quot;color: #d4d4d4&quot;&gt;  &lt;/span&gt;&lt;span style=&quot;color: #9cdcfe&quot;&gt;changePercent24Hr&lt;/span&gt;&lt;span style=&quot;color: #d4d4d4&quot;&gt;: &lt;/span&gt;&lt;span style=&quot;color: #4ec9b0&quot;&gt;number&lt;/span&gt;&lt;/div&gt;&lt;div&gt;&lt;span style=&quot;color: #d4d4d4&quot;&gt;}&lt;/span&gt;&lt;/div&gt;&lt;/div&gt;" style="text;whiteSpace=wrap;html=1;spacingTop=-5;" vertex="1" parent="1">
                    <mxGeometry x="410" y="465" width="190" height="110" as="geometry"/>
                </mxCell>
                <mxCell id="3" value="&lt;meta charset=&quot;utf-8&quot; style=&quot;font-size: 9px;&quot;&gt;&lt;div style=&quot;color: rgb(212, 212, 212); background-color: rgb(30, 30, 30); font-family: menlo, monaco, &amp;quot;courier new&amp;quot;, monospace; font-weight: normal; font-size: 9px; line-height: 18px;&quot;&gt;&lt;div style=&quot;font-size: 9px;&quot;&gt;&lt;span style=&quot;color: rgb(197, 134, 192); font-size: 9px;&quot;&gt;export&lt;/span&gt;&lt;span style=&quot;color: rgb(212, 212, 212); font-size: 9px;&quot;&gt; &lt;/span&gt;&lt;span style=&quot;color: rgb(86, 156, 214); font-size: 9px;&quot;&gt;type&lt;/span&gt;&lt;span style=&quot;color: rgb(212, 212, 212); font-size: 9px;&quot;&gt; &lt;/span&gt;&lt;span style=&quot;color: rgb(78, 201, 176); font-size: 9px;&quot;&gt;CoinGeckoMarketCap&lt;/span&gt;&lt;span style=&quot;color: rgb(212, 212, 212); font-size: 9px;&quot;&gt; = {&lt;/span&gt;&lt;/div&gt;&lt;div style=&quot;font-size: 9px;&quot;&gt;&lt;span style=&quot;color: rgb(212, 212, 212); font-size: 9px;&quot;&gt;  &lt;/span&gt;&lt;span style=&quot;color: rgb(156, 220, 254); font-size: 9px;&quot;&gt;id&lt;/span&gt;&lt;span style=&quot;color: rgb(212, 212, 212); font-size: 9px;&quot;&gt;: &lt;/span&gt;&lt;span style=&quot;color: rgb(78, 201, 176); font-size: 9px;&quot;&gt;string&lt;/span&gt;&lt;/div&gt;&lt;div style=&quot;font-size: 9px;&quot;&gt;&lt;span style=&quot;color: rgb(212, 212, 212); font-size: 9px;&quot;&gt;  &lt;/span&gt;&lt;span style=&quot;color: rgb(156, 220, 254); font-size: 9px;&quot;&gt;symbol&lt;/span&gt;&lt;span style=&quot;color: rgb(212, 212, 212); font-size: 9px;&quot;&gt;: &lt;/span&gt;&lt;span style=&quot;color: rgb(78, 201, 176); font-size: 9px;&quot;&gt;string&lt;/span&gt;&lt;/div&gt;&lt;div style=&quot;font-size: 9px;&quot;&gt;&lt;span style=&quot;color: rgb(212, 212, 212); font-size: 9px;&quot;&gt;  &lt;/span&gt;&lt;span style=&quot;color: rgb(156, 220, 254); font-size: 9px;&quot;&gt;name&lt;/span&gt;&lt;span style=&quot;color: rgb(212, 212, 212); font-size: 9px;&quot;&gt;: &lt;/span&gt;&lt;span style=&quot;color: rgb(78, 201, 176); font-size: 9px;&quot;&gt;string&lt;/span&gt;&lt;/div&gt;&lt;div style=&quot;font-size: 9px;&quot;&gt;&lt;span style=&quot;color: rgb(212, 212, 212); font-size: 9px;&quot;&gt;  &lt;/span&gt;&lt;span style=&quot;color: rgb(156, 220, 254); font-size: 9px;&quot;&gt;image&lt;/span&gt;&lt;span style=&quot;color: rgb(212, 212, 212); font-size: 9px;&quot;&gt;: &lt;/span&gt;&lt;span style=&quot;color: rgb(78, 201, 176); font-size: 9px;&quot;&gt;string&lt;/span&gt;&lt;/div&gt;&lt;div style=&quot;font-size: 9px;&quot;&gt;&lt;span style=&quot;color: rgb(212, 212, 212); font-size: 9px;&quot;&gt;  &lt;/span&gt;&lt;span style=&quot;color: rgb(156, 220, 254); font-size: 9px;&quot;&gt;current_price&lt;/span&gt;&lt;span style=&quot;color: rgb(212, 212, 212); font-size: 9px;&quot;&gt;: &lt;/span&gt;&lt;span style=&quot;color: rgb(78, 201, 176); font-size: 9px;&quot;&gt;number&lt;/span&gt;&lt;/div&gt;&lt;div style=&quot;font-size: 9px;&quot;&gt;&lt;span style=&quot;color: rgb(212, 212, 212); font-size: 9px;&quot;&gt;  &lt;/span&gt;&lt;span style=&quot;color: rgb(156, 220, 254); font-size: 9px;&quot;&gt;market_cap&lt;/span&gt;&lt;span style=&quot;color: rgb(212, 212, 212); font-size: 9px;&quot;&gt;: &lt;/span&gt;&lt;span style=&quot;color: rgb(78, 201, 176); font-size: 9px;&quot;&gt;number&lt;/span&gt;&lt;/div&gt;&lt;div style=&quot;font-size: 9px;&quot;&gt;&lt;span style=&quot;color: rgb(212, 212, 212); font-size: 9px;&quot;&gt;  &lt;/span&gt;&lt;span style=&quot;color: rgb(156, 220, 254); font-size: 9px;&quot;&gt;market_cap_rank&lt;/span&gt;&lt;span style=&quot;color: rgb(212, 212, 212); font-size: 9px;&quot;&gt;: &lt;/span&gt;&lt;span style=&quot;color: rgb(78, 201, 176); font-size: 9px;&quot;&gt;number&lt;/span&gt;&lt;/div&gt;&lt;div style=&quot;font-size: 9px;&quot;&gt;&lt;span style=&quot;color: rgb(212, 212, 212); font-size: 9px;&quot;&gt;  &lt;/span&gt;&lt;span style=&quot;color: rgb(156, 220, 254); font-size: 9px;&quot;&gt;fully_diluted_valuation&lt;/span&gt;&lt;span style=&quot;color: rgb(212, 212, 212); font-size: 9px;&quot;&gt;: &lt;/span&gt;&lt;span style=&quot;color: rgb(78, 201, 176); font-size: 9px;&quot;&gt;number&lt;/span&gt;&lt;span style=&quot;color: rgb(212, 212, 212); font-size: 9px;&quot;&gt; | &lt;/span&gt;&lt;span style=&quot;color: rgb(78, 201, 176); font-size: 9px;&quot;&gt;null&lt;/span&gt;&lt;/div&gt;&lt;div style=&quot;font-size: 9px;&quot;&gt;&lt;span style=&quot;color: rgb(212, 212, 212); font-size: 9px;&quot;&gt;  &lt;/span&gt;&lt;span style=&quot;color: rgb(156, 220, 254); font-size: 9px;&quot;&gt;total_volume&lt;/span&gt;&lt;span style=&quot;color: rgb(212, 212, 212); font-size: 9px;&quot;&gt;: &lt;/span&gt;&lt;span style=&quot;color: rgb(78, 201, 176); font-size: 9px;&quot;&gt;number&lt;/span&gt;&lt;/div&gt;&lt;div style=&quot;font-size: 9px;&quot;&gt;&lt;span style=&quot;color: rgb(212, 212, 212); font-size: 9px;&quot;&gt;  &lt;/span&gt;&lt;span style=&quot;color: rgb(156, 220, 254); font-size: 9px;&quot;&gt;high_24h&lt;/span&gt;&lt;span style=&quot;color: rgb(212, 212, 212); font-size: 9px;&quot;&gt;: &lt;/span&gt;&lt;span style=&quot;color: rgb(78, 201, 176); font-size: 9px;&quot;&gt;number&lt;/span&gt;&lt;/div&gt;&lt;div style=&quot;font-size: 9px;&quot;&gt;&lt;span style=&quot;color: rgb(212, 212, 212); font-size: 9px;&quot;&gt;  &lt;/span&gt;&lt;span style=&quot;color: rgb(156, 220, 254); font-size: 9px;&quot;&gt;low_24h&lt;/span&gt;&lt;span style=&quot;color: rgb(212, 212, 212); font-size: 9px;&quot;&gt;: &lt;/span&gt;&lt;span style=&quot;color: rgb(78, 201, 176); font-size: 9px;&quot;&gt;number&lt;/span&gt;&lt;/div&gt;&lt;div style=&quot;font-size: 9px;&quot;&gt;&lt;span style=&quot;color: rgb(212, 212, 212); font-size: 9px;&quot;&gt;  &lt;/span&gt;&lt;span style=&quot;color: rgb(156, 220, 254); font-size: 9px;&quot;&gt;price_change_24h&lt;/span&gt;&lt;span style=&quot;color: rgb(212, 212, 212); font-size: 9px;&quot;&gt;: &lt;/span&gt;&lt;span style=&quot;color: rgb(78, 201, 176); font-size: 9px;&quot;&gt;number&lt;/span&gt;&lt;/div&gt;&lt;div style=&quot;font-size: 9px;&quot;&gt;&lt;span style=&quot;color: rgb(212, 212, 212); font-size: 9px;&quot;&gt;  &lt;/span&gt;&lt;span style=&quot;color: rgb(156, 220, 254); font-size: 9px;&quot;&gt;price_change_percentage_24h&lt;/span&gt;&lt;span style=&quot;color: rgb(212, 212, 212); font-size: 9px;&quot;&gt;: &lt;/span&gt;&lt;span style=&quot;color: rgb(78, 201, 176); font-size: 9px;&quot;&gt;number&lt;/span&gt;&lt;/div&gt;&lt;div style=&quot;font-size: 9px;&quot;&gt;&lt;span style=&quot;color: rgb(212, 212, 212); font-size: 9px;&quot;&gt;  &lt;/span&gt;&lt;span style=&quot;color: rgb(156, 220, 254); font-size: 9px;&quot;&gt;market_cap_change_24h&lt;/span&gt;&lt;span style=&quot;color: rgb(212, 212, 212); font-size: 9px;&quot;&gt;: &lt;/span&gt;&lt;span style=&quot;color: rgb(78, 201, 176); font-size: 9px;&quot;&gt;number&lt;/span&gt;&lt;/div&gt;&lt;div style=&quot;font-size: 9px;&quot;&gt;&lt;span style=&quot;color: rgb(212, 212, 212); font-size: 9px;&quot;&gt;  &lt;/span&gt;&lt;span style=&quot;color: rgb(156, 220, 254); font-size: 9px;&quot;&gt;market_cap_change_percentage_24h&lt;/span&gt;&lt;span style=&quot;color: rgb(212, 212, 212); font-size: 9px;&quot;&gt;: &lt;/span&gt;&lt;span style=&quot;color: rgb(78, 201, 176); font-size: 9px;&quot;&gt;number&lt;/span&gt;&lt;/div&gt;&lt;div style=&quot;font-size: 9px;&quot;&gt;&lt;span style=&quot;color: rgb(212, 212, 212); font-size: 9px;&quot;&gt;  &lt;/span&gt;&lt;span style=&quot;color: rgb(156, 220, 254); font-size: 9px;&quot;&gt;circulating_supply&lt;/span&gt;&lt;span style=&quot;color: rgb(212, 212, 212); font-size: 9px;&quot;&gt;: &lt;/span&gt;&lt;span style=&quot;color: rgb(78, 201, 176); font-size: 9px;&quot;&gt;number&lt;/span&gt;&lt;/div&gt;&lt;div style=&quot;font-size: 9px;&quot;&gt;&lt;span style=&quot;color: rgb(212, 212, 212); font-size: 9px;&quot;&gt;  &lt;/span&gt;&lt;span style=&quot;color: rgb(156, 220, 254); font-size: 9px;&quot;&gt;total_supply&lt;/span&gt;&lt;span style=&quot;color: rgb(212, 212, 212); font-size: 9px;&quot;&gt;: &lt;/span&gt;&lt;span style=&quot;color: rgb(78, 201, 176); font-size: 9px;&quot;&gt;number&lt;/span&gt;&lt;span style=&quot;color: rgb(212, 212, 212); font-size: 9px;&quot;&gt; | &lt;/span&gt;&lt;span style=&quot;color: rgb(78, 201, 176); font-size: 9px;&quot;&gt;null&lt;/span&gt;&lt;/div&gt;&lt;div style=&quot;font-size: 9px;&quot;&gt;&lt;span style=&quot;color: rgb(212, 212, 212); font-size: 9px;&quot;&gt;  &lt;/span&gt;&lt;span style=&quot;color: rgb(156, 220, 254); font-size: 9px;&quot;&gt;max_supply&lt;/span&gt;&lt;span style=&quot;color: rgb(212, 212, 212); font-size: 9px;&quot;&gt;: &lt;/span&gt;&lt;span style=&quot;color: rgb(78, 201, 176); font-size: 9px;&quot;&gt;number&lt;/span&gt;&lt;span style=&quot;color: rgb(212, 212, 212); font-size: 9px;&quot;&gt; | &lt;/span&gt;&lt;span style=&quot;color: rgb(78, 201, 176); font-size: 9px;&quot;&gt;null&lt;/span&gt;&lt;/div&gt;&lt;div style=&quot;font-size: 9px;&quot;&gt;&lt;span style=&quot;color: rgb(212, 212, 212); font-size: 9px;&quot;&gt;  &lt;/span&gt;&lt;span style=&quot;color: rgb(156, 220, 254); font-size: 9px;&quot;&gt;ath&lt;/span&gt;&lt;span style=&quot;color: rgb(212, 212, 212); font-size: 9px;&quot;&gt;: &lt;/span&gt;&lt;span style=&quot;color: rgb(78, 201, 176); font-size: 9px;&quot;&gt;number&lt;/span&gt;&lt;/div&gt;&lt;div style=&quot;font-size: 9px;&quot;&gt;&lt;span style=&quot;color: rgb(212, 212, 212); font-size: 9px;&quot;&gt;  &lt;/span&gt;&lt;span style=&quot;color: rgb(156, 220, 254); font-size: 9px;&quot;&gt;ath_change_percentage&lt;/span&gt;&lt;span style=&quot;color: rgb(212, 212, 212); font-size: 9px;&quot;&gt;: &lt;/span&gt;&lt;span style=&quot;color: rgb(78, 201, 176); font-size: 9px;&quot;&gt;number&lt;/span&gt;&lt;/div&gt;&lt;div style=&quot;font-size: 9px;&quot;&gt;&lt;span style=&quot;color: rgb(212, 212, 212); font-size: 9px;&quot;&gt;  &lt;/span&gt;&lt;span style=&quot;color: rgb(156, 220, 254); font-size: 9px;&quot;&gt;ath_date&lt;/span&gt;&lt;span style=&quot;color: rgb(212, 212, 212); font-size: 9px;&quot;&gt;: &lt;/span&gt;&lt;span style=&quot;color: rgb(78, 201, 176); font-size: 9px;&quot;&gt;string&lt;/span&gt;&lt;/div&gt;&lt;div style=&quot;font-size: 9px;&quot;&gt;&lt;span style=&quot;color: rgb(212, 212, 212); font-size: 9px;&quot;&gt;  &lt;/span&gt;&lt;span style=&quot;color: rgb(156, 220, 254); font-size: 9px;&quot;&gt;atl&lt;/span&gt;&lt;span style=&quot;color: rgb(212, 212, 212); font-size: 9px;&quot;&gt;: &lt;/span&gt;&lt;span style=&quot;color: rgb(78, 201, 176); font-size: 9px;&quot;&gt;number&lt;/span&gt;&lt;/div&gt;&lt;div style=&quot;font-size: 9px;&quot;&gt;&lt;span style=&quot;color: rgb(212, 212, 212); font-size: 9px;&quot;&gt;  &lt;/span&gt;&lt;span style=&quot;color: rgb(156, 220, 254); font-size: 9px;&quot;&gt;atl_change_percentage&lt;/span&gt;&lt;span style=&quot;color: rgb(212, 212, 212); font-size: 9px;&quot;&gt;: &lt;/span&gt;&lt;span style=&quot;color: rgb(78, 201, 176); font-size: 9px;&quot;&gt;number&lt;/span&gt;&lt;/div&gt;&lt;div style=&quot;font-size: 9px;&quot;&gt;&lt;span style=&quot;color: rgb(212, 212, 212); font-size: 9px;&quot;&gt;  &lt;/span&gt;&lt;span style=&quot;color: rgb(156, 220, 254); font-size: 9px;&quot;&gt;atl_date&lt;/span&gt;&lt;span style=&quot;color: rgb(212, 212, 212); font-size: 9px;&quot;&gt;: &lt;/span&gt;&lt;span style=&quot;color: rgb(78, 201, 176); font-size: 9px;&quot;&gt;string&lt;/span&gt;&lt;/div&gt;&lt;div style=&quot;font-size: 9px;&quot;&gt;&lt;span style=&quot;color: rgb(212, 212, 212); font-size: 9px;&quot;&gt;  &lt;/span&gt;&lt;span style=&quot;color: rgb(156, 220, 254); font-size: 9px;&quot;&gt;roi&lt;/span&gt;&lt;span style=&quot;color: rgb(212, 212, 212); font-size: 9px;&quot;&gt;: &lt;/span&gt;&lt;span style=&quot;color: rgb(78, 201, 176); font-size: 9px;&quot;&gt;null&lt;/span&gt;&lt;span style=&quot;color: rgb(212, 212, 212); font-size: 9px;&quot;&gt; | {&lt;/span&gt;&lt;/div&gt;&lt;div style=&quot;font-size: 9px;&quot;&gt;&lt;span style=&quot;color: rgb(212, 212, 212); font-size: 9px;&quot;&gt;    &lt;/span&gt;&lt;span style=&quot;color: rgb(156, 220, 254); font-size: 9px;&quot;&gt;times&lt;/span&gt;&lt;span style=&quot;color: rgb(212, 212, 212); font-size: 9px;&quot;&gt;: &lt;/span&gt;&lt;span style=&quot;color: rgb(78, 201, 176); font-size: 9px;&quot;&gt;number&lt;/span&gt;&lt;/div&gt;&lt;div style=&quot;font-size: 9px;&quot;&gt;&lt;span style=&quot;color: rgb(212, 212, 212); font-size: 9px;&quot;&gt;    &lt;/span&gt;&lt;span style=&quot;color: rgb(156, 220, 254); font-size: 9px;&quot;&gt;currency&lt;/span&gt;&lt;span style=&quot;color: rgb(212, 212, 212); font-size: 9px;&quot;&gt;: &lt;/span&gt;&lt;span style=&quot;color: rgb(78, 201, 176); font-size: 9px;&quot;&gt;string&lt;/span&gt;&lt;/div&gt;&lt;div style=&quot;font-size: 9px;&quot;&gt;&lt;span style=&quot;color: rgb(212, 212, 212); font-size: 9px;&quot;&gt;    &lt;/span&gt;&lt;span style=&quot;color: rgb(156, 220, 254); font-size: 9px;&quot;&gt;percentage&lt;/span&gt;&lt;span style=&quot;color: rgb(212, 212, 212); font-size: 9px;&quot;&gt;: &lt;/span&gt;&lt;span style=&quot;color: rgb(78, 201, 176); font-size: 9px;&quot;&gt;number&lt;/span&gt;&lt;/div&gt;&lt;div style=&quot;font-size: 9px;&quot;&gt;&lt;span style=&quot;color: rgb(212, 212, 212); font-size: 9px;&quot;&gt;  }&lt;/span&gt;&lt;/div&gt;&lt;div style=&quot;font-size: 9px;&quot;&gt;&lt;span style=&quot;color: rgb(212, 212, 212); font-size: 9px;&quot;&gt;  &lt;/span&gt;&lt;span style=&quot;color: rgb(156, 220, 254); font-size: 9px;&quot;&gt;last_updated&lt;/span&gt;&lt;span style=&quot;color: rgb(212, 212, 212); font-size: 9px;&quot;&gt;: &lt;/span&gt;&lt;span style=&quot;color: rgb(78, 201, 176); font-size: 9px;&quot;&gt;string&lt;/span&gt;&lt;/div&gt;&lt;div style=&quot;font-size: 9px;&quot;&gt;&lt;span style=&quot;color: rgb(212, 212, 212); font-size: 9px;&quot;&gt;}&lt;/span&gt;&lt;/div&gt;&lt;/div&gt;" style="text;whiteSpace=wrap;html=1;fontSize=9;spacingTop=-5;" vertex="1" parent="1">
                    <mxGeometry x="10" y="231.5" width="220" height="580" as="geometry"/>
                </mxCell>
                <mxCell id="10" value="" style="endArrow=classic;html=1;fontSize=9;" edge="1" parent="1" source="4">
                    <mxGeometry width="50" height="50" relative="1" as="geometry">
                        <mxPoint x="300" y="531.5" as="sourcePoint"/>
                        <mxPoint x="410" y="522" as="targetPoint"/>
                    </mxGeometry>
                </mxCell>
                <mxCell id="11" value="" style="endArrow=classic;html=1;fontSize=9;exitX=1;exitY=0.5;exitDx=0;exitDy=0;entryX=0.08;entryY=0.5;entryDx=0;entryDy=0;entryPerimeter=0;" edge="1" parent="1" source="2" target="6">
                    <mxGeometry width="50" height="50" relative="1" as="geometry">
                        <mxPoint x="580" y="550" as="sourcePoint"/>
                        <mxPoint x="630" y="500" as="targetPoint"/>
                    </mxGeometry>
                </mxCell>
                <mxCell id="15" value="" style="group" vertex="1" connectable="0" parent="1">
                    <mxGeometry x="680" y="475" width="116.75" height="90" as="geometry"/>
                </mxCell>
                <mxCell id="6" value="" style="verticalLabelPosition=bottom;html=1;verticalAlign=top;align=center;strokeColor=none;fillColor=#00BEF2;shape=mxgraph.azure.laptop;pointerEvents=1;fontSize=9;" vertex="1" parent="15">
                    <mxGeometry width="116.75" height="90" as="geometry"/>
                </mxCell>
                <mxCell id="7" value="Web" style="text;html=1;strokeColor=none;fillColor=none;align=center;verticalAlign=middle;whiteSpace=wrap;rounded=0;fontSize=12;" vertex="1" parent="15">
                    <mxGeometry x="38.370000000000005" y="28.5" width="40" height="20" as="geometry"/>
                </mxCell>
                <mxCell id="16" value="" style="group" vertex="1" connectable="0" parent="1">
                    <mxGeometry x="290" y="475" width="76.5" height="93" as="geometry"/>
                </mxCell>
                <mxCell id="4" value="" style="outlineConnect=0;dashed=0;verticalLabelPosition=bottom;verticalAlign=top;align=center;html=1;shape=mxgraph.aws3.cloudsearch;fillColor=#F58534;gradientColor=none;" vertex="1" parent="16">
                    <mxGeometry width="76.5" height="93" as="geometry"/>
                </mxCell>
                <mxCell id="5" value="Market-Service" style="text;html=1;strokeColor=none;fillColor=none;align=center;verticalAlign=middle;whiteSpace=wrap;rounded=0;" vertex="1" parent="16">
                    <mxGeometry x="18.25" y="30" width="40" height="20" as="geometry"/>
                </mxCell>
                <mxCell id="17" value="" style="edgeStyle=none;html=1;fontSize=9;" edge="1" parent="1" source="6" target="2">
                    <mxGeometry relative="1" as="geometry"/>
                </mxCell>
                <mxCell id="18" value="" style="group" vertex="1" connectable="0" parent="1">
                    <mxGeometry x="250" y="220" width="190" height="120" as="geometry"/>
                </mxCell>
                <mxCell id="12" value="" style="ellipse;shape=cloud;whiteSpace=wrap;html=1;" vertex="1" parent="18">
                    <mxGeometry width="190" height="120" as="geometry"/>
                </mxCell>
                <mxCell id="13" value="CoinGecko" style="text;html=1;strokeColor=none;fillColor=none;align=center;verticalAlign=middle;whiteSpace=wrap;rounded=0;" vertex="1" parent="18">
                    <mxGeometry x="75" y="50" width="40" height="20" as="geometry"/>
                </mxCell>
                <mxCell id="19" value="" style="endArrow=classic;startArrow=classic;html=1;fontSize=9;" edge="1" parent="1" source="4" target="3">
                    <mxGeometry width="50" height="50" relative="1" as="geometry">
                        <mxPoint x="330" y="490" as="sourcePoint"/>
                        <mxPoint x="380" y="440" as="targetPoint"/>
                    </mxGeometry>
                </mxCell>
                <mxCell id="20" value="" style="endArrow=classic;startArrow=classic;html=1;fontSize=9;" edge="1" parent="1" source="3" target="12">
                    <mxGeometry width="50" height="50" relative="1" as="geometry">
                        <mxPoint x="330" y="490" as="sourcePoint"/>
                        <mxPoint x="380" y="440" as="targetPoint"/>
                    </mxGeometry>
                </mxCell>
                <mxCell id="21" value="" style="endArrow=classic;startArrow=classic;html=1;" edge="1" parent="1" target="23" source="6">
                    <mxGeometry width="50" height="50" relative="1" as="geometry">
                        <mxPoint x="736.9962228260869" y="560" as="sourcePoint"/>
                        <mxPoint x="736.62" y="650" as="targetPoint"/>
                    </mxGeometry>
                </mxCell>
                <mxCell id="22" value="" style="group" vertex="1" connectable="0" parent="1">
                    <mxGeometry x="710" y="660" width="54" height="110" as="geometry"/>
                </mxCell>
                <mxCell id="23" value="" style="outlineConnect=0;fontColor=#232F3E;gradientColor=none;fillColor=#6CAE3E;strokeColor=none;dashed=0;verticalLabelPosition=bottom;verticalAlign=top;align=center;html=1;fontSize=12;fontStyle=0;aspect=fixed;pointerEvents=1;shape=mxgraph.aws4.iot_analytics_data_store;" vertex="1" parent="22">
                    <mxGeometry width="54" height="78" as="geometry"/>
                </mxCell>
                <mxCell id="24" value="Redux Store" style="text;html=1;strokeColor=none;fillColor=none;align=center;verticalAlign=middle;whiteSpace=wrap;rounded=0;" vertex="1" parent="22">
                    <mxGeometry x="7" y="90" width="40" height="20" as="geometry"/>
                </mxCell>
            </root>
        </mxGraphModel>
    </diagram>
</mxfile>